<svg width="162" height="131" viewBox="0 0 162 131" fill="none" xmlns="http://www.w3.org/2000/svg">
<path d="M37.6346 130.076L85.4988 11.8187C88.3367 4.84796 95.0979 0.304688 102.626 0.304688H72.2478C60.4847 0.304688 49.85 7.45745 45.479 18.3413L0.226562 130.078H37.6369L37.6346 130.076Z" fill="#1E3045"/>
<path d="M125.522 87.5196C125.565 87.6265 125.61 87.7312 125.657 87.8358L142.782 130.074H161.458L117.693 22.1028L116.366 18.8085L114.392 13.933C112.452 9.16454 107.812 6.01587 102.629 6.01587C99.2957 6.01587 96.2294 7.3172 93.9297 9.47622L108.375 45.1559L108.366 45.1763L120.604 75.3617L125.524 87.5196H125.522Z" fill="#1E3045"/>
<path fill-rule="evenodd" clip-rule="evenodd" d="M92.8793 130.074L81.8077 102.674C81.1062 100.938 79.4211 99.8014 77.5485 99.8014H56.2188L62.945 83.2119L88.7254 83.2119C91.2335 83.2119 93.4881 84.7409 94.4159 87.0711L111.539 130.074H92.8793Z" fill="#1E3045"/>
<path fill-rule="evenodd" clip-rule="evenodd" d="M117.891 130.074L80.8535 38.7152L90.1835 15.6394L136.567 130.074H117.891Z" fill="#1E3045"/>
</svg>
